<?xml version="1.0" encoding="UTF-8" standalone="no"?>
<!-- Created with Inkscape (http://www.inkscape.org/) -->

<svg
   width="16"
   height="16"
   viewBox="0 0 16 16"
   version="1.1"
   id="svg1"
   xml:space="preserve"
   xmlns:inkscape="http://www.inkscape.org/namespaces/inkscape"
   xmlns:sodipodi="http://sodipodi.sourceforge.net/DTD/sodipodi-0.dtd"
   xmlns="http://www.w3.org/2000/svg"
   xmlns:svg="http://www.w3.org/2000/svg"><sodipodi:namedview
     id="namedview1"
     pagecolor="#ffffff"
     bordercolor="#000000"
     borderopacity="0.25"
     inkscape:showpageshadow="2"
     inkscape:pageopacity="0.0"
     inkscape:pagecheckerboard="0"
     inkscape:deskcolor="#d1d1d1"
     inkscape:document-units="px" /><defs
     id="defs1" /><g
     inkscape:label="Layer 1"
     inkscape:groupmode="layer"
     id="layer1"><path
       d="m 8.3147792,3.2790274 c 0,-1.5613031 -1.2717062,-2.83300602 -2.8330092,-2.83300602 -1.5613002,0 -2.8330061,1.27170292 -2.8330061,2.83300602 v 1.2591158 c 0,1.5613001 1.2717058,2.8330061 2.8330061,2.8330061 1.561303,0 2.8330092,-1.271706 2.8330092,-2.8330061 z M 6.4261083,4.5381432 c 0,0.5225297 -0.4218057,0.9443354 -0.9443383,0.9443354 -0.5225299,0 -0.9443354,-0.4218057 -0.9443354,-0.9443354 V 3.2790274 c 0,-0.5225327 0.4218055,-0.9443353 0.9443354,-0.9443353 0.5225326,0 0.9443383,0.4218026 0.9443383,0.9443353 z M 10.51823,8.6302651 c -1.5613028,0 -2.8330089,1.2717029 -2.8330089,2.8330059 v 1.259116 c 0,1.5613 1.2717061,2.833006 2.8330089,2.833006 1.5613,0 2.833006,-1.271706 2.833006,-2.833006 v -1.259116 c 0,-1.561303 -1.271706,-2.8330059 -2.833006,-2.8330059 z m 0.944335,4.0921219 c 0,0.522533 -0.421805,0.944335 -0.944335,0.944335 -0.5225328,0 -0.9443378,-0.421802 -0.9443378,-0.944335 v -1.259116 c 0,-0.522533 0.421805,-0.944335 0.9443378,-0.944335 0.52253,0 0.944335,0.421802 0.944335,0.944335 z M 9.8508992,3.3168008 c -0.371439,-0.371439 -0.371439,-0.9695186 0,-1.3346626 L 11.110012,0.72302544 c 0.270712,-0.27070899 0.679921,-0.35255087 1.02618,-0.20775227 0.352551,0.14479557 0.585486,0.49105433 0.585486,0.87508353 v 5.0364572 c 0,0.5225328 -0.421802,0.9443354 -0.944335,0.9443354 -0.522533,0 -0.944335,-0.4218026 -0.944335,-0.9443354 V 3.5371462 C 10.499342,3.6567616 10.115312,3.581215 9.8508992,3.3168008 Z M 6.4261083,9.5746 v 5.036457 c 0,0.522533 -0.4218057,0.944336 -0.9443383,0.944336 -0.5225299,0 -0.9443354,-0.421803 -0.9443354,-0.944336 V 11.72139 c -0.3336657,0.119615 -0.7176949,0.04407 -0.9821088,-0.220345 -0.371439,-0.37144 -0.371439,-0.969519 0,-1.33466 L 4.8144415,8.9072691 C 5.0851505,8.6365601 5.4943631,8.5547183 5.8406188,8.6995138 6.1931698,8.8443124 6.4261083,9.1905682 6.4261083,9.5746 Z"
       id="path1"
       style="fill:#e0e0e0;fill-opacity:1;stroke-width:0.629555" /></g></svg>
