<?xml version="1.0" encoding="UTF-8" standalone="no"?>
<svg
   height="1024"
   width="1024"
   version="1.1"
   id="svg8"
   sodipodi:docname="icon_color.svg"
   xml:space="preserve"
   xmlns:inkscape="http://www.inkscape.org/namespaces/inkscape"
   xmlns:sodipodi="http://sodipodi.sourceforge.net/DTD/sodipodi-0.dtd"
   xmlns="http://www.w3.org/2000/svg"
   xmlns:svg="http://www.w3.org/2000/svg"><defs
     id="defs8" /><sodipodi:namedview
     id="namedview8"
     pagecolor="#ffffff"
     bordercolor="#000000"
     borderopacity="0.25"
     inkscape:showpageshadow="2"
     inkscape:pageopacity="0.0"
     inkscape:pagecheckerboard="0"
     inkscape:deskcolor="#d1d1d1" /><path
     d="m 919.24059,673.15214 c 0,0 -1.35285,-8.30025 -2.14374,-8.22532 l -150.6116,14.53168 c -11.98415,1.1572 -21.29175,10.71456 -22.1326,22.72369 l -4.13763,59.30472 -116.51981,8.31273 -7.92561,-53.74763 c -1.76495,-11.95502 -12.20478,-20.96707 -24.28884,-20.96707 H 432.51897 c -12.07989,0 -22.51972,9.01205 -24.28467,20.96707 l -7.92977,53.74763 -116.51981,-8.31273 -4.13764,-59.30472 c -0.84084,-12.0133 -10.14844,-21.57065 -22.1326,-22.72786 L 106.82796,664.92682 c -0.7784,-0.0749 -1.34868,8.23365 -2.12709,8.23365 l -0.20397,32.59324 127.61733,20.57995 4.17926,59.83337 c 0.84501,12.1132 10.61882,21.90782 22.74034,22.77781 l 160.47282,11.44718 c 0.60774,0.0416 1.20716,0.0666 1.80657,0.0666 12.05909,0 22.48227,-9.01622 24.24721,-20.97124 l 8.15456,-55.30445 h 116.57392 l 8.15455,55.30445 c 1.76079,11.95086 12.19646,20.96708 24.27219,20.96708 0.59109,0 1.18218,-0.0208 1.76078,-0.0624 l 160.49363,-11.44718 c 12.11736,-0.86999 21.89534,-10.66461 22.74035,-22.77781 l 4.1751,-59.83337 127.56321,-20.67153 z"
     fill="#ffffff"
     id="path1"
     style="stroke-width:4.16261" /><path
     d="m 104.69892,427.38725 v 197.7823 25.12136 22.86106 c 0.44956,0.004 0.89912,0.0208 1.34452,0.0624 l 150.66987,14.52751 c 7.89231,0.76176 14.07795,7.1139 14.62742,15.02286 l 4.64547,66.5102 131.43028,9.37836 9.05368,-61.38602 c 1.17385,-7.95891 8.00054,-13.85733 16.05103,-13.85733 h 158.96179 c 8.04632,0 14.873,5.89842 16.04686,13.85733 l 9.05368,61.38602 131.43444,-9.37836 4.64131,-66.5102 c 0.55363,-7.90896 6.73511,-14.25694 14.62742,-15.02286 l 150.61159,-14.52751 c 0.4454,-0.0416 0.8908,-0.0583 1.34036,-0.0624 v -19.61006 l 0.0624,-0.0208 V 427.38725 C 940.51757,400.67798 960.60763,371.21611 976,346.42863 952.47709,306.38431 923.65517,270.59834 892.84769,237.44315 c -28.57217,14.38182 -56.32429,30.67428 -82.53625,48.01155 -13.11639,-13.03729 -27.8895,-23.7019 -42.40036,-34.84938 -14.25694,-11.45134 -30.32462,-19.84733 -45.56394,-29.62946 4.53725,-33.78792 6.78089,-67.05134 7.68418,-101.76752 -39.32002,-19.789048 -81.25,-32.909598 -123.66285,-42.333749 -16.9335,28.459769 -32.41841,59.279739 -45.90527,89.408719 -15.99275,-2.67239 -32.06043,-3.6631 -48.14892,-3.85458 v -0.025 c -0.11239,0 -0.21646,0.025 -0.3122,0.025 -0.0999,0 -0.20397,-0.025 -0.30387,-0.025 v 0.025 c -16.11763,0.19148 -32.17282,1.18219 -48.16973,3.85458 -13.47854,-30.12898 -28.95513,-60.94895 -45.9136,-89.408719 -42.39203,9.424151 -84.32618,22.544701 -123.64204,42.333749 0.89913,34.71618 3.14277,67.9796 7.69251,101.76752 -15.26846,9.78213 -31.31533,18.17812 -45.57643,29.62946 -14.49005,11.14748 -29.28813,21.81209 -42.40868,34.84938 -26.21196,-17.33727 -53.95577,-33.62973 -82.53625,-48.01155 -30.80749,33.15519 -59.612754,68.94116 -83.143994,108.98548 18.493056,29.02877 38.329198,58.20532 56.698924,80.95862 z"
     fill="#478cbf"
     id="path2"
     style="stroke-width:4.16261" /><path
     d="m 784.07144,718.72312 -4.66629,66.86402 c -0.56195,8.05882 -6.97237,14.4734 -15.03119,15.052 L 603.8845,812.09048 c -0.39129,0.0291 -0.78257,0.0416 -1.1697,0.0416 -7.97556,0 -14.85635,-5.85263 -16.03437,-13.86149 L 577.47689,735.8564 H 446.52531 l -9.20353,62.41419 c -1.23629,8.40015 -8.74564,14.44009 -17.20407,13.81986 L 259.62824,800.63914 c -8.05881,-0.5786 -14.46923,-6.99318 -15.03119,-15.052 l -4.66628,-66.86402 -135.4805,-13.06227 c 0.0624,14.56081 0.24975,30.51194 0.24975,33.68801 0,143.08559 181.51066,211.86025 407.02427,212.65114 h 0.27473 0.2789 c 225.51361,-0.79089 406.96182,-69.56555 406.96182,-212.65114 0,-3.23435 0.19565,-19.11887 0.26225,-33.68801 z"
     fill="#478cbf"
     id="path3"
     style="stroke-width:4.16261" /><path
     d="m 389.21484,527.15132 c 0,50.16779 -40.6479,90.80736 -90.79903,90.80736 -50.12617,0 -90.78655,-40.63957 -90.78655,-90.80736 0,-50.13449 40.66038,-90.75325 90.78655,-90.75325 50.15113,0 90.79903,40.61876 90.79903,90.75325"
     fill="#ffffff"
     id="path4"
     style="display:none;stroke-width:4.16261" /><path
     d="m 367.36686,532.53707 c 0,33.27591 -26.96956,60.24547 -60.27044,60.24547 -33.28424,0 -60.27045,-26.96956 -60.27045,-60.24547 0,-33.27591 26.98621,-60.27044 60.27045,-60.27044 33.30088,0 60.27044,26.99453 60.27044,60.27044"
     fill="#414042"
     id="path5"
     style="display:none;stroke-width:4.16261" /><path
     d="m 511.99336,626.21982 c -16.14261,0 -29.22569,-11.89674 -29.22569,-26.56162 v -83.58939 c 0,-14.65239 13.08308,-26.56162 29.22569,-26.56162 16.14261,0 29.25483,11.90923 29.25483,26.56162 v 83.58939 c 0,14.66488 -13.11222,26.56162 -29.25483,26.56162"
     fill="#ffffff"
     id="path6"
     style="display:none;stroke-width:4.16261" /><path
     d="m 634.78706,527.15132 c 0,50.16779 40.6479,90.80736 90.80736,90.80736 50.122,0 90.77822,-40.63957 90.77822,-90.80736 0,-50.13449 -40.65622,-90.75325 -90.77822,-90.75325 -50.15946,0 -90.80736,40.61876 -90.80736,90.75325"
     fill="#ffffff"
     id="path7"
     style="display:none;stroke-width:4.16261" /><path
     d="m 656.64056,532.53707 c 0,33.27591 26.96123,60.24547 60.23714,60.24547 33.30922,0 60.27045,-26.96956 60.27045,-60.24547 0,-33.27591 -26.96123,-60.27044 -60.27045,-60.27044 -33.27591,0 -60.23714,26.99453 -60.23714,60.27044"
     fill="#414042"
     id="path8"
     style="display:none;stroke-width:4.16261" /><path
     d="m 521.34454,300.4909 c 0,-46.34896 -37.75192,-84.10058 -84.10059,-84.10058 -46.34868,0 -84.10059,37.75162 -84.10059,84.10058 v 37.37789 c 0,46.34866 37.75191,84.1006 84.10059,84.1006 46.34867,0 84.10059,-37.75194 84.10059,-84.1006 z m -56.06694,37.37789 c 0,15.51179 -12.52186,28.03364 -28.03365,28.03364 -15.5118,0 -28.03363,-12.52185 -28.03363,-28.03364 V 300.4909 c 0,-15.51208 12.52183,-28.03362 28.03363,-28.03362 15.51179,0 28.03365,12.52154 28.03365,28.03362 z m 121.47845,121.47876 c -46.34867,0 -84.10059,37.75164 -84.10059,84.10031 v 37.37817 c 0,46.34868 37.75192,84.10029 84.10059,84.10029 46.34868,0 84.10059,-37.75161 84.10059,-84.10029 v -37.37817 c 0,-46.34867 -37.75191,-84.10031 -84.10059,-84.10031 z m 28.03363,121.47848 c 0,15.51178 -12.52183,28.03333 -28.03363,28.03333 -15.51179,0 -28.03365,-12.52155 -28.03365,-28.03333 v -37.37817 c 0,-15.51181 12.52186,-28.03335 28.03365,-28.03335 15.5118,0 28.03363,12.52154 28.03363,28.03335 z M 566.94572,301.61214 c -11.02654,-11.02654 -11.02654,-28.7811 0,-39.62064 l 37.37788,-37.37787 c 8.03628,-8.03629 20.18408,-10.46609 30.46313,-6.16755 10.46579,4.29851 17.38081,14.57758 17.38081,25.97788 v 149.51178 c 0,15.51211 -12.52152,28.03365 -28.03361,28.03365 -15.51181,0 -28.03333,-12.52154 -28.03333,-28.03365 v -85.78228 c -9.90531,3.55072 -21.30562,1.30914 -29.15488,-6.54132 z M 465.2776,487.38088 V 636.893 c 0,15.5118 -12.52186,28.03332 -28.03365,28.03332 -15.5118,0 -28.03363,-12.52152 -28.03363,-28.03332 v -85.78261 c -9.90501,3.55101 -21.30532,1.30915 -29.15458,-6.54099 -11.02654,-11.02656 -11.02654,-28.78113 0,-39.62066 l 37.37788,-37.37817 c 8.03629,-8.03629 20.18407,-10.46577 30.46313,-6.16756 10.46578,4.29852 17.38085,14.57759 17.38085,25.97787 z"
     id="path1-6"
     style="fill:#ffffff;fill-opacity:1;stroke-width:18.6889" /></svg>
